<?xml version="1.0" standalone="no"?><!DOCTYPE svg PUBLIC "-//W3C//DTD SVG 1.1//EN" "http://www.w3.org/Graphics/SVG/1.1/DTD/svg11.dtd"><svg t="1595411107744" class="icon" viewBox="0 0 1024 1024" version="1.1" xmlns="http://www.w3.org/2000/svg" p-id="1160" xmlns:xlink="http://www.w3.org/1999/xlink" width="200" height="200"><defs><style type="text/css"></style></defs><path d="M137.986 921.673H960.09v101.673H36.312V268.26L657.38 1.634l327.055 178.481-48.701 89.248-283.67-154.798-514.077 220.69v586.418z m152.51-520.483h653.617a14.525 14.525 0 0 1 14.525 14.525v399.433a14.525 14.525 0 0 1-14.525 14.524H290.496a14.525 14.525 0 0 1-14.524-14.524V415.715a14.525 14.525 0 0 1 14.524-14.525z m268.71 167.036V437.502L384.908 611.8l174.298 174.298V669.899h297.759V568.226h-297.76z" p-id="1161" fill="#1296db"></path></svg>