<svg id="svg" version="1.1" xmlns="http://www.w3.org/2000/svg" xmlns:xlink="http://www.w3.org/1999/xlink" width="400" height="400" viewBox="0, 0, 400,400"><g id="svgg"><path id="path0" d="M69.467 91.467 C 69.320 91.613,69.200 92.063,69.200 92.467 C 69.200 92.870,68.975 93.210,68.700 93.222 C 68.425 93.233,66.670 93.278,64.800 93.322 C 61.606 93.395,61.392 93.455,61.272 94.300 C 61.153 95.141,60.950 95.200,58.172 95.200 C 55.269 95.200,55.200 95.223,55.200 96.200 C 55.200 97.162,55.103 97.200,52.649 97.200 C 50.052 97.200,48.881 97.794,49.305 98.895 C 49.451 99.273,48.959 99.366,47.350 99.263 C 45.268 99.130,45.200 99.159,45.200 100.163 C 45.200 101.077,45.038 101.200,43.829 101.200 C 42.527 101.200,41.200 102.022,41.200 102.829 C 41.200 103.033,40.750 103.200,40.200 103.200 C 39.400 103.200,39.200 103.400,39.200 104.200 C 39.200 105.133,39.067 105.200,37.200 105.200 C 35.266 105.200,35.200 105.238,35.200 106.345 C 35.200 107.366,35.087 107.467,34.142 107.287 C 33.180 107.103,33.103 107.180,33.287 108.142 C 33.485 109.180,33.448 109.200,31.345 109.200 C 29.324 109.200,29.200 109.258,29.200 110.200 C 29.200 111.000,29.000 111.200,28.200 111.200 C 27.400 111.200,27.200 111.400,27.200 112.200 C 27.200 113.000,27.000 113.200,26.200 113.200 C 25.400 113.200,25.200 113.400,25.200 114.200 C 25.200 115.000,25.000 115.200,24.200 115.200 C 23.400 115.200,23.200 115.400,23.200 116.200 C 23.200 117.000,23.000 117.200,22.200 117.200 C 21.400 117.200,21.200 117.400,21.200 118.200 C 21.200 119.000,21.000 119.200,20.200 119.200 C 19.400 119.200,19.200 119.400,19.200 120.200 C 19.200 121.000,19.000 121.200,18.200 121.200 C 17.400 121.200,17.200 121.400,17.200 122.200 C 17.200 123.000,17.000 123.200,16.200 123.200 C 15.405 123.200,15.200 123.401,15.200 124.182 C 15.200 124.722,14.750 125.614,14.200 126.164 C 13.650 126.714,13.200 127.622,13.200 128.182 C 13.200 129.001,13.005 129.200,12.200 129.200 C 11.428 129.200,11.200 129.406,11.200 130.105 C 11.200 130.660,10.852 131.163,10.300 131.405 C 9.605 131.710,9.372 132.187,9.277 133.500 C 9.168 135.002,9.040 135.200,8.177 135.200 C 7.271 135.200,7.200 135.346,7.200 137.200 C 7.200 139.067,7.133 139.200,6.200 139.200 C 5.269 139.200,5.200 139.335,5.200 141.172 C 5.200 142.913,5.094 143.159,4.300 143.272 C 3.474 143.389,3.390 143.639,3.282 146.300 C 3.170 149.081,3.125 149.200,2.182 149.200 C 1.227 149.200,1.200 149.281,1.200 152.200 C 1.200 154.600,1.080 155.200,0.600 155.200 C 0.075 155.200,0.000 157.556,0.000 174.000 C 0.000 190.444,0.075 192.800,0.600 192.800 C 1.080 192.800,1.200 193.400,1.200 195.800 C 1.200 198.733,1.222 198.800,2.200 198.800 C 3.178 198.800,3.200 198.867,3.200 201.800 C 3.200 204.718,3.227 204.800,4.182 204.800 C 5.115 204.800,5.169 204.932,5.282 207.500 C 5.385 209.857,5.514 210.250,6.300 210.595 C 6.852 210.837,7.200 211.340,7.200 211.895 C 7.200 212.594,7.428 212.800,8.200 212.800 C 9.133 212.800,9.200 212.933,9.200 214.800 C 9.200 216.715,9.247 216.800,10.300 216.799 C 11.346 216.799,11.400 216.892,11.400 218.699 C 11.400 220.366,11.511 220.616,12.300 220.728 C 12.951 220.820,13.200 221.124,13.200 221.828 C 13.200 222.598,13.408 222.800,14.200 222.800 C 15.000 222.800,15.200 223.000,15.200 223.800 C 15.200 224.600,15.400 224.800,16.200 224.800 C 17.000 224.800,17.200 225.000,17.200 225.800 C 17.200 226.600,17.400 226.800,18.200 226.800 C 18.950 226.800,19.200 227.011,19.200 227.642 C 19.200 228.106,19.639 228.830,20.175 229.252 C 20.770 229.720,21.199 230.523,21.275 231.310 C 21.370 232.284,21.614 232.630,22.275 232.725 C 22.821 232.802,23.198 233.179,23.275 233.725 C 23.381 234.464,23.696 234.619,25.300 234.722 C 27.015 234.832,27.200 234.939,27.200 235.822 C 27.200 236.599,27.406 236.800,28.200 236.800 C 29.000 236.800,29.200 237.000,29.200 237.800 C 29.200 238.600,29.400 238.800,30.200 238.800 C 31.000 238.800,31.200 239.000,31.200 239.800 C 31.200 240.592,31.402 240.800,32.172 240.800 C 32.876 240.800,33.180 241.049,33.272 241.700 C 33.382 242.476,33.648 242.604,35.200 242.628 C 36.863 242.654,37.010 242.742,37.131 243.769 C 37.243 244.727,37.411 244.860,38.340 244.724 C 39.272 244.587,39.417 244.703,39.409 245.583 C 39.401 246.512,39.562 246.610,41.275 246.721 C 42.856 246.823,43.169 246.979,43.275 247.721 C 43.380 248.462,43.693 248.619,45.275 248.721 C 46.856 248.823,47.169 248.979,47.275 249.721 C 47.381 250.465,47.693 250.619,49.304 250.722 C 50.682 250.810,51.478 251.114,52.186 251.822 C 52.952 252.588,53.580 252.800,55.087 252.800 C 56.698 252.800,57.074 252.946,57.405 253.700 C 57.812 254.628,57.951 254.651,63.872 254.774 C 64.877 254.794,65.171 254.989,65.272 255.700 C 65.399 256.596,65.436 256.600,73.400 256.681 C 77.800 256.726,81.805 256.771,82.300 256.781 C 82.988 256.796,83.200 257.035,83.200 257.800 L 83.200 258.800 106.551 258.800 C 125.764 258.800,129.982 258.703,130.354 258.255 C 130.682 257.860,130.778 250.803,130.703 232.555 L 130.600 207.400 103.700 207.297 L 76.800 207.194 76.800 206.197 C 76.800 205.223,76.731 205.200,73.800 205.200 C 70.867 205.200,70.800 205.178,70.800 204.200 C 70.800 203.267,70.667 203.200,68.800 203.200 C 66.933 203.200,66.800 203.133,66.800 202.200 C 66.800 201.400,66.600 201.200,65.800 201.200 C 65.000 201.200,64.800 201.000,64.800 200.200 C 64.800 199.400,64.600 199.200,63.800 199.200 C 63.000 199.200,62.800 199.000,62.800 198.200 C 62.800 197.400,62.600 197.200,61.800 197.200 C 61.000 197.200,60.800 197.000,60.800 196.200 C 60.800 195.400,60.600 195.200,59.800 195.200 C 59.000 195.200,58.800 195.000,58.800 194.200 C 58.800 193.400,58.600 193.200,57.800 193.200 C 57.000 193.200,56.800 193.000,56.800 192.200 C 56.800 191.400,56.600 191.200,55.800 191.200 C 54.867 191.200,54.800 191.067,54.800 189.200 C 54.800 187.333,54.733 187.200,53.800 187.200 C 52.682 187.200,52.709 187.346,52.796 181.752 C 52.846 178.565,52.359 177.200,51.171 177.200 C 50.259 177.200,50.755 171.010,51.700 170.595 C 52.527 170.232,52.609 169.898,52.715 166.500 C 52.828 162.866,52.848 162.800,53.815 162.800 C 54.730 162.800,54.800 162.659,54.800 160.800 C 54.800 158.945,54.871 158.800,55.779 158.800 C 56.678 158.800,56.768 158.628,56.879 156.700 C 56.991 154.759,57.070 154.610,57.930 154.730 C 58.703 154.838,58.838 154.703,58.730 153.930 C 58.624 153.173,58.805 152.976,59.700 152.873 C 60.564 152.774,60.800 152.538,60.800 151.773 C 60.800 151.002,61.007 150.800,61.800 150.800 C 62.600 150.800,62.800 150.600,62.800 149.800 C 62.800 149.026,63.006 148.800,63.711 148.800 C 64.862 148.800,66.512 147.669,66.272 147.044 C 66.148 146.720,66.518 146.621,67.445 146.729 C 68.679 146.873,68.800 146.794,68.800 145.844 C 68.800 144.858,68.911 144.800,70.800 144.800 C 72.667 144.800,72.800 144.733,72.800 143.800 L 72.800 142.800 76.818 142.800 C 80.571 142.800,80.902 142.734,81.836 141.800 L 82.836 140.800 112.018 140.800 L 141.200 140.800 141.200 225.800 L 141.200 310.800 167.520 310.800 C 187.458 310.800,193.956 310.684,194.320 310.320 C 195.019 309.621,195.019 92.379,194.320 91.680 C 193.796 91.156,69.989 90.944,69.467 91.467 M207.200 201.000 L 207.200 310.800 233.200 310.800 L 259.200 310.800 259.200 225.800 L 259.200 140.800 288.571 140.800 L 317.942 140.800 318.729 141.800 C 319.470 142.743,319.735 142.800,323.358 142.800 C 327.173 142.800,327.200 142.807,327.200 143.784 C 327.200 144.661,327.365 144.765,328.700 144.738 C 331.073 144.689,331.200 144.743,331.200 145.800 C 331.200 146.733,331.333 146.800,333.200 146.800 C 335.067 146.800,335.200 146.867,335.200 147.800 C 335.200 148.600,335.400 148.800,336.200 148.800 C 337.000 148.800,337.200 149.000,337.200 149.800 C 337.200 150.600,337.400 150.800,338.200 150.800 C 339.000 150.800,339.200 151.000,339.200 151.800 C 339.200 152.623,339.395 152.801,340.300 152.806 C 340.905 152.809,341.670 153.006,342.000 153.244 C 342.506 153.608,342.491 153.640,341.900 153.450 C 341.385 153.285,341.200 153.446,341.200 154.059 C 341.200 154.733,341.392 154.857,342.200 154.702 C 343.166 154.517,343.200 154.584,343.200 156.655 C 343.200 158.663,343.262 158.800,344.177 158.800 C 345.040 158.800,345.168 158.998,345.277 160.500 C 345.371 161.803,345.607 162.291,346.284 162.588 C 347.058 162.927,347.183 163.329,347.284 165.788 C 347.390 168.358,347.477 168.611,348.300 168.728 C 349.278 168.867,349.240 168.632,349.240 174.600 C 349.240 176.250,349.231 177.917,349.220 178.305 C 349.209 178.693,348.795 179.188,348.300 179.405 C 347.473 179.768,347.391 180.102,347.285 183.500 C 347.172 187.134,347.152 187.200,346.185 187.200 C 345.270 187.200,345.200 187.341,345.200 189.200 C 345.200 191.090,345.142 191.200,344.155 191.200 C 343.237 191.200,343.129 191.337,343.273 192.319 C 343.424 193.345,343.345 193.424,342.319 193.273 C 341.344 193.130,341.200 193.240,341.200 194.127 C 341.200 194.878,340.964 195.178,340.300 195.272 C 339.730 195.353,339.354 195.721,339.275 196.275 C 339.198 196.821,338.821 197.198,338.275 197.275 C 337.721 197.354,337.353 197.730,337.272 198.300 C 337.180 198.951,336.876 199.200,336.172 199.200 C 335.402 199.200,335.200 199.408,335.200 200.200 C 335.200 201.000,335.000 201.200,334.200 201.200 C 333.400 201.200,333.200 201.400,333.200 202.200 C 333.200 203.133,333.067 203.200,331.200 203.200 C 329.333 203.200,329.200 203.267,329.200 204.200 C 329.200 205.178,329.133 205.200,326.200 205.200 C 323.267 205.200,323.200 205.222,323.200 206.200 C 323.200 206.969,322.992 207.201,322.300 207.206 C 321.805 207.209,309.902 207.206,295.848 207.200 C 277.338 207.192,270.145 207.314,269.748 207.643 C 268.718 208.498,268.961 256.961,270.000 258.000 C 270.781 258.781,271.333 258.800,293.619 258.800 L 316.438 258.800 317.319 257.798 C 318.199 256.797,318.205 256.796,326.400 256.698 C 334.526 256.601,334.601 256.592,334.726 255.714 C 334.845 254.879,335.072 254.822,338.726 254.714 C 342.375 254.607,342.607 254.549,342.726 253.718 C 342.839 252.923,343.115 252.824,345.526 252.718 C 347.857 252.615,348.251 252.484,348.595 251.700 C 348.925 250.948,349.303 250.800,350.895 250.800 C 352.660 250.800,352.800 250.727,352.800 249.800 C 352.800 248.867,352.933 248.800,354.800 248.800 C 356.655 248.800,356.800 248.729,356.800 247.822 C 356.800 246.939,356.985 246.832,358.700 246.722 C 360.440 246.610,360.599 246.514,360.591 245.583 C 360.582 244.697,360.724 244.586,361.691 244.728 C 362.662 244.870,362.800 244.760,362.800 243.845 C 362.800 242.858,362.910 242.800,364.800 242.800 C 366.667 242.800,366.800 242.733,366.800 241.800 C 366.800 241.000,367.000 240.800,367.800 240.800 C 368.600 240.800,368.800 240.600,368.800 239.800 C 368.800 239.000,369.000 238.800,369.800 238.800 C 370.594 238.800,370.800 238.598,370.800 237.823 C 370.800 236.960,370.998 236.832,372.500 236.723 C 373.813 236.628,374.290 236.395,374.595 235.700 C 374.837 235.148,375.340 234.800,375.895 234.800 C 376.594 234.800,376.800 234.572,376.800 233.800 C 376.800 233.000,377.000 232.800,377.800 232.800 C 378.592 232.800,378.800 232.598,378.800 231.828 C 378.800 231.124,379.049 230.820,379.700 230.728 C 380.270 230.647,380.646 230.279,380.725 229.725 C 380.802 229.179,381.179 228.802,381.725 228.725 C 382.464 228.619,382.619 228.304,382.722 226.700 C 382.832 224.985,382.939 224.800,383.822 224.800 C 384.599 224.800,384.800 224.594,384.800 223.800 C 384.800 223.000,385.000 222.800,385.800 222.800 C 386.600 222.800,386.800 222.600,386.800 221.800 C 386.800 221.000,387.000 220.800,387.800 220.800 C 388.733 220.800,388.800 220.667,388.800 218.800 C 388.800 216.933,388.867 216.800,389.800 216.800 C 390.592 216.800,390.800 216.598,390.800 215.828 C 390.800 215.124,391.049 214.820,391.700 214.728 C 392.466 214.619,392.618 214.321,392.721 212.725 C 392.823 211.144,392.979 210.831,393.721 210.725 C 394.521 210.611,394.611 210.340,394.718 207.700 C 394.830 204.919,394.875 204.800,395.818 204.800 C 396.730 204.800,396.800 204.657,396.800 202.800 C 396.800 200.933,396.867 200.800,397.800 200.800 C 398.778 200.800,398.800 200.733,398.800 197.800 C 398.800 195.400,398.920 194.800,399.400 194.800 C 400.397 194.800,400.297 157.336,399.300 157.076 C 398.633 156.902,398.633 156.891,399.300 156.846 C 400.164 156.789,400.260 155.200,399.400 155.200 C 398.920 155.200,398.800 154.600,398.800 152.200 C 398.800 149.267,398.778 149.200,397.800 149.200 C 396.822 149.200,396.800 149.133,396.800 146.200 C 396.800 143.267,396.778 143.200,395.800 143.200 C 394.867 143.200,394.800 143.067,394.800 141.200 C 394.800 139.333,394.733 139.200,393.800 139.200 C 392.867 139.200,392.800 139.067,392.800 137.200 C 392.800 135.333,392.733 135.200,391.800 135.200 C 390.867 135.200,390.800 135.067,390.800 133.200 C 390.800 131.333,390.733 131.200,389.800 131.200 C 389.000 131.200,388.800 131.000,388.800 130.200 C 388.800 129.406,388.599 129.200,387.822 129.200 C 386.939 129.200,386.832 129.015,386.722 127.300 C 386.618 125.679,386.468 125.381,385.700 125.272 C 385.049 125.180,384.800 124.876,384.800 124.172 C 384.800 123.402,384.592 123.200,383.800 123.200 C 383.000 123.200,382.800 123.000,382.800 122.200 C 382.800 121.400,382.600 121.200,381.800 121.200 C 381.000 121.200,380.800 121.000,380.800 120.200 C 380.800 119.400,380.600 119.200,379.800 119.200 C 379.000 119.200,378.800 119.000,378.800 118.200 C 378.800 117.400,378.600 117.200,377.800 117.200 C 377.000 117.200,376.800 117.000,376.800 116.200 C 376.800 115.400,376.600 115.200,375.800 115.200 C 375.000 115.200,374.800 115.000,374.800 114.200 C 374.800 113.400,374.600 113.200,373.800 113.200 C 373.000 113.200,372.800 113.000,372.800 112.200 C 372.800 111.400,372.600 111.200,371.800 111.200 C 371.000 111.200,370.800 111.000,370.800 110.200 C 370.800 109.267,370.667 109.200,368.800 109.200 C 366.933 109.200,366.800 109.133,366.800 108.200 C 366.800 107.400,366.600 107.200,365.800 107.200 C 365.000 107.200,364.800 107.000,364.800 106.200 C 364.800 105.267,364.667 105.200,362.800 105.200 C 360.933 105.200,360.800 105.133,360.800 104.200 C 360.800 103.400,360.600 103.200,359.800 103.200 C 359.000 103.200,358.800 103.000,358.800 102.200 C 358.800 101.267,358.667 101.200,356.800 101.200 C 354.933 101.200,354.800 101.133,354.800 100.200 C 354.800 99.269,354.665 99.200,352.828 99.200 C 351.087 99.200,350.841 99.094,350.728 98.300 C 350.611 97.474,350.361 97.390,347.700 97.282 C 344.919 97.170,344.800 97.125,344.800 96.182 C 344.800 95.227,344.719 95.200,341.800 95.200 C 338.867 95.200,338.800 95.178,338.800 94.200 C 338.800 93.200,338.798 93.200,334.828 93.200 C 331.013 93.200,330.851 93.164,330.728 92.300 C 330.602 91.417,330.484 91.398,324.470 91.289 C 319.590 91.201,318.399 91.283,318.629 91.689 C 318.860 92.099,318.811 92.101,318.379 91.700 C 317.953 91.305,306.222 91.200,262.520 91.200 L 207.200 91.200 207.200 201.000 M117.900 257.100 C 112.455 257.163,103.545 257.163,98.100 257.100 C 92.655 257.037,97.110 256.985,108.000 256.985 C 118.890 256.985,123.345 257.037,117.900 257.100 M302.100 257.100 C 296.765 257.163,288.035 257.163,282.700 257.100 C 277.365 257.037,281.730 256.985,292.400 256.985 C 303.070 256.985,307.435 257.037,302.100 257.100 " stroke="none" fill="#549434" fill-rule="evenodd"></path><path id="path1" d="M98.100 257.100 C 103.545 257.163,112.455 257.163,117.900 257.100 C 123.345 257.037,118.890 256.985,108.000 256.985 C 97.110 256.985,92.655 257.037,98.100 257.100 M282.700 257.100 C 288.035 257.163,296.765 257.163,302.100 257.100 C 307.435 257.037,303.070 256.985,292.400 256.985 C 281.730 256.985,277.365 257.037,282.700 257.100 " stroke="none" fill="#589434" fill-rule="evenodd"></path><path id="path2" d="M98.100 257.100 C 103.545 257.163,112.455 257.163,117.900 257.100 C 123.345 257.037,118.890 256.985,108.000 256.985 C 97.110 256.985,92.655 257.037,98.100 257.100 M282.700 257.100 C 288.035 257.163,296.765 257.163,302.100 257.100 C 307.435 257.037,303.070 256.985,292.400 256.985 C 281.730 256.985,277.365 257.037,282.700 257.100 " stroke="none" fill="#589434" fill-rule="evenodd"></path><path id="path3" d="M98.100 257.100 C 103.545 257.163,112.455 257.163,117.900 257.100 C 123.345 257.037,118.890 256.985,108.000 256.985 C 97.110 256.985,92.655 257.037,98.100 257.100 M282.700 257.100 C 288.035 257.163,296.765 257.163,302.100 257.100 C 307.435 257.037,303.070 256.985,292.400 256.985 C 281.730 256.985,277.365 257.037,282.700 257.100 " stroke="none" fill="#589434" fill-rule="evenodd"></path><path id="path4" d="M98.100 257.100 C 103.545 257.163,112.455 257.163,117.900 257.100 C 123.345 257.037,118.890 256.985,108.000 256.985 C 97.110 256.985,92.655 257.037,98.100 257.100 M282.700 257.100 C 288.035 257.163,296.765 257.163,302.100 257.100 C 307.435 257.037,303.070 256.985,292.400 256.985 C 281.730 256.985,277.365 257.037,282.700 257.100 " stroke="none" fill="#589434" fill-rule="evenodd"></path></g></svg>