<?xml version="1.0" standalone="no"?><!DOCTYPE svg PUBLIC "-//W3C//DTD SVG 1.1//EN" "http://www.w3.org/Graphics/SVG/1.1/DTD/svg11.dtd"><svg t="1595411232112" class="icon" viewBox="0 0 1024 1024" version="1.1" xmlns="http://www.w3.org/2000/svg" p-id="3313" xmlns:xlink="http://www.w3.org/1999/xlink" width="200" height="200"><defs><style type="text/css"></style></defs><path d="M832 1024H192a192 192 0 0 1-192-192v-128h128v128a64 64 0 0 0 64 64h640c35.392 0 64-28.608 64-64V192a64 64 0 0 0-64-64H192C156.672 128 128 156.672 128 192v128H0V192a192 192 0 0 1 192-192h640a192 192 0 0 1 192 192v640a192 192 0 0 1-192 192zM295.488 324.8a64.106667 64.106667 0 0 1 69.76 13.888l128 128c12.48 12.48 18.752 28.864 18.752 45.248s-6.272 32.768-18.752 45.248l-128 128a64.213333 64.213333 0 0 1-69.76 13.888A64.042667 64.042667 0 0 1 256 639.936V576H64a64 64 0 1 1 0-128h192v-64.064c0-25.856 15.616-49.28 39.488-59.136z" fill="#1296db" p-id="3314"></path></svg>