<?xml version="1.0" standalone="no"?><!DOCTYPE svg PUBLIC "-//W3C//DTD SVG 1.1//EN" "http://www.w3.org/Graphics/SVG/1.1/DTD/svg11.dtd"><svg t="1595411254324" class="icon" viewBox="0 0 1024 1024" version="1.1" xmlns="http://www.w3.org/2000/svg" p-id="4157" xmlns:xlink="http://www.w3.org/1999/xlink" width="200" height="200"><defs><style type="text/css"></style></defs><path d="M832 0a192 192 0 0 1 192 192v640a192 192 0 0 1-192 192H192a192 192 0 0 1-192-192v-112.576l56.256 56.256c20.544 20.544 45.12 35.2 71.744 44.608V832a64 64 0 0 0 64 64h640c35.392 0 64-28.608 64-64V192a64 64 0 0 0-64-64H192C156.672 128 128 156.672 128 192v11.648c-26.56 9.408-51.136 24-71.744 44.544L0 304.448V192a192 192 0 0 1 192-192h640zM216.512 324.8A64.042667 64.042667 0 0 1 256 383.936V448h192a64 64 0 0 1 64 64c0 35.392-28.608 64-64 64h-192v63.936c0 25.856-15.616 49.28-39.488 59.136a64.213333 64.213333 0 0 1-69.76-13.888l-128-128A63.829333 63.829333 0 0 1 0 511.936c0-16.384 6.272-32.768 18.752-45.248l128-128a64.106667 64.106667 0 0 1 69.76-13.888z" fill="#1296db" p-id="4158"></path></svg>